# xmcd
#
# Track frame offsets:
#	150
#	21749
#	46405
#	87527
#	107964
#	128007
#	160683
#	178331
#	202094
#
# Disc length: 3052 seconds
#
# Revision: 0
# Processed by: cddbd v1.5.2PL0 Copyright (c) Steve Scherf et al.
# Submitted via: EZCDAudioConverter 7.0.9.1
#
DISCID=830bea09
DTITLE=Kozmic Blue - Sunset In Paradise
DYEAR=2017
DGENRE=Blues Rock
TTITLE0=Strong
TTITLE1=Black Eyed Blues
TTITLE2=Satelite
TTITLE3=Red Glow
TTITLE4=What I Want
TTITLE5=Might Makes Right
TTITLE6=Sugaree
TTITLE7=On Slick Avenue
TTITLE8=Kozmic Blues
EXTD=
EXTT0=
EXTT1=
EXTT2=
EXTT3=
EXTT4=
EXTT5=
EXTT6=
EXTT7=
EXTT8=
PLAYORDER=
